HIERARCHY
ROOT Hips
{
	OFFSET 0.00000 0.00000 0.00000
	CHANNELS 6 Xposition Yposition Zposition Yrotation Zrotation Xrotation 
	JOINT Lumbar
	{
		OFFSET 0 0 0
		CHANNELS 3 Zrotation Xrotation Yrotation
		JOINT Neck
		{
			OFFSET 0.00 0.2701 0.00
			CHANNELS 3 Zrotation Xrotation Yrotation
			End Site
			{
				OFFSET 0.00 0.1379 0.00
			}
		}
		JOINT RightShoulder
		{
			OFFSET 0.0119 0.2289 0.1181
			CHANNELS 3 Zrotation Xrotation Yrotation
			JOINT RightElbow
			{
				OFFSET 0.00 -0.1475 0.00
				CHANNELS 2 Zrotation Yrotation
				JOINT RightWrist
				{
					OFFSET 0.00 -0.1605 0.00
					CHANNELS 2 Zrotation Xrotation
					End Site
					{
						OFFSET 0.0040 -0.1068 0.0006
					}
				}
			}
		}
		JOINT LeftShoulder
		{
			OFFSET 0.0119 0.2289 -0.1181
			CHANNELS 3 Zrotation Xrotation Yrotation
			JOINT LeftElbow
			{
				OFFSET 0.00 -0.1475 0.00
				CHANNELS 2 Zrotation Yrotation
				JOINT LeftWrist
				{
					OFFSET 0.00 -0.1605 0.00
					CHANNELS 2 Zrotation Xrotation
					End Site
					{
						OFFSET 0.0040 -0.1068 -0.0006
					}
				}
			}
		}
	}
	JOINT RightHip
	{
		OFFSET 0.0316 -0.0424 0.0458
		CHANNELS 3 Zrotation Xrotation Yrotation
		JOINT RightKnee
		{
			OFFSET 0.00 -0.2438 0.00
			CHANNELS 1 Zrotation
			JOINT RightAnkle
			{
				OFFSET 0.00 -0.2449 0.00
				CHANNELS 3 Zrotation Xrotation Yrotation
				End Site
				{
					OFFSET 0.1237 -0.0542 0.0051
				}
			}
		}
	}
	JOINT LeftHip
	{
		OFFSET 0.0316 -0.0424 -0.0458
		CHANNELS 3 Zrotation Xrotation Yrotation
		JOINT LeftKnee
		{
			OFFSET 0.00 -0.2438 0.00
			CHANNELS 1 Zrotation
			JOINT LeftAnkle
			{
				OFFSET 0.00 -0.2449 0.00
				CHANNELS 3 Zrotation Xrotation Yrotation
				End Site
				{
					OFFSET 0.1237 -0.0542 -0.0051
				}
			}
		}
	}
}
MOTION
Frames: 28
Frame Time: 0.02
-0.00056 -0 0.00022 32.10212 -32.21145 -5.39669 49.3949 1.57816 -6.94527 11.25256 -2.35247 -0.31638 4.47199 -14.52789 5.81503 41.91386 90.39474 5.11254 0.94609 7.86673 10.13969 -3.81723 46.63721 -92.61111 6.01023 -1.64209 45.86778 -0.07238 -2.14939 -19.4932 -6.07194 -2.80726 -3.59152 49.49363 4.86128 2.76029 -24.45112 -6.39017 1.59241 3.01479
-0.00031 -1e-05 0.00043 32.07209 -32.13722 -5.38242 49.40445 1.61041 -6.71996 10.89301 -2.30005 -0.31968 3.09674 -14.28681 4.98445 41.36755 90.25023 5.01437 0.98197 6.22465 10.24827 -3.43874 46.56481 -92.92909 6.20283 -1.67082 45.77363 -0.15622 -2.77753 -19.50589 -6.06523 -2.7435 -3.55688 49.38798 4.93 2.97008 -24.44754 -6.39329 1.58198 3.00802
-5e-05 -1e-05 0.00064 32.04224 -32.06312 -5.3682 49.41393 1.64261 -6.49526 10.53402 -2.24773 -0.32308 1.72379 -14.04569 4.15338 40.82181 90.11344 4.91836 1.01904 4.58459 10.3565 -3.06029 46.4924 -93.24678 6.39525 -1.69952 45.67964 -0.23976 -3.40371 -19.51856 -6.05855 -2.67994 -3.52235 49.28254 4.99854 3.17929 -24.44397 -6.39642 1.57158 3.00128
0.0002 -2e-05 0.00086 32.01232 -31.98911 -5.35397 49.42345 1.67476 -6.27062 10.17549 -2.19546 -0.32639 0.35247 -13.80523 3.32489 40.27699 89.97063 4.82082 1.05504 2.9471 10.46474 -2.68275 46.42019 -93.56386 6.58731 -1.72817 45.58576 -0.32334 -4.02994 -19.53122 -6.05186 -2.61637 -3.48782 49.1772 5.06705 3.38845 -24.44041 -6.39954 1.56119 2.99454
0.00045 -3e-05 0.00107 31.98221 -31.91501 -5.33969 49.43303 1.70695 -6.04539 9.81662 -2.14313 -0.32953 -1.02045 -13.56509 2.49796 39.73205 89.81716 4.72038 1.08931 1.30867 10.57337 -2.30568 46.34807 -93.88104 6.77946 -1.75682 45.49177 -0.40721 -4.65804 -19.54389 -6.04516 -2.55262 -3.45318 49.07172 5.13571 3.59816 -24.43683 -6.40266 1.55076 2.98777
0.0007 -3e-05 0.00128 31.95292 -31.8409 -5.32561 49.4423 1.73916 -5.82186 9.45739 -2.09081 -0.33348 -2.39335 -13.32196 1.65827 39.18471 89.71527 4.63365 1.13225 -0.33475 10.68077 -1.92442 46.27505 -94.19985 6.97246 -1.78563 45.39778 -0.49003 -5.28013 -19.55656 -6.03851 -2.48945 -3.41889 48.96634 5.20402 3.8063 -24.43327 -6.40578 1.54042 2.98107
0.00095 -4e-05 0.00149 31.92199 -31.76691 -5.31113 49.45221 1.77129 -5.59514 9.0993 -2.03851 -0.33582 -3.7647 -13.0851 0.84532 38.64271 89.51038 4.51961 1.15784 -1.96611 10.79045 -1.55176 46.20393 -94.5148 7.16338 -1.81408 45.3039 -0.57492 -5.91378 -19.56921 -6.03176 -2.42517 -3.38392 48.86086 5.27295 4.01739 -24.42969 -6.4089 1.52993 2.97426
0.0012 -4e-05 0.0017 31.89261 -31.69281 -5.29702 49.46151 1.80351 -5.37139 8.74012 -1.98623 -0.33961 -5.13764 -12.84247 0.00742 38.09597 89.39924 4.43041 1.19918 -3.60894 10.89814 -1.17161 46.13103 -94.83371 7.35649 -1.84288 45.20993 -0.65785 -6.5365 -19.58187 -6.02511 -2.36195 -3.34959 48.7555 5.3413 4.22571 -24.42612 -6.41203 1.51957 2.96754
0.00145 -5e-05 0.00191 31.86497 -31.61852 -5.28336 49.47012 1.8358 -5.15103 8.37949 -1.93381 -0.34533 -6.51281 -12.59251 -0.86071 37.54227 89.40887 4.37324 1.26098 -5.26566 11.003 -0.78023 46.05602 -95.15614 7.55139 -1.87204 45.11575 -0.73861 -7.14718 -19.59458 -6.01855 -2.29983 -3.31599 48.65014 5.40902 4.43094 -24.42258 -6.41513 1.50937 2.96096
0.0017 -5e-05 0.00212 31.82684 -31.54513 -5.26711 49.48287 1.86755 -4.91043 8.02684 -1.88167 -0.34041 -7.87608 -12.38387 -1.55417 37.02504 88.74231 4.13683 1.20873 -6.84216 11.12297 -0.44719 45.99334 -95.45436 7.73332 -1.89897 45.02243 -0.83253 -7.83112 -19.60714 -6.01135 -2.23081 -3.27804 48.54432 5.4806 4.65484 -24.41893 -6.4183 1.49827 2.95364
0.00194 -6e-05 0.00233 31.81114 -31.46998 -5.25634 49.48677 1.90051 -4.71303 7.65769 -1.82931 -0.35766 -9.26355 -12.08869 -2.61625 36.43332 89.48966 4.27514 1.3946 -8.58767 11.2118 0.0048 45.90455 -95.80608 7.94426 -1.93067 44.92755 -0.89822 -8.3579 -19.61994 -6.00557 -2.17669 -3.24938 48.43978 5.5439 4.83876 -24.41545 -6.42136 1.48905 2.94787
0.00213 -7e-05 0.00251 31.85533 -31.38884 -5.26069 49.46711 1.9363 -4.631 7.23973 -1.77321 -0.43849 -10.72615 -11.54937 -4.69658 35.61459 94.25608 5.47972 2.26029 -10.80333 11.20607 0.82589 45.74409 -96.29334 8.22473 -1.97606 44.8262 -0.88983 -8.4719 -19.6341 -6.00318 -2.16094 -3.24531 48.33634 5.58558 4.91716 -24.41287 -6.42376 1.4853 2.94654
0.0023 -8e-05 0.00269 31.92244 -31.30612 -5.27056 49.43836 1.97342 -4.59271 6.80597 -1.71748 -0.54108 -12.21108 -10.92516 -7.14326 34.72533 100.412 7.05265 3.35938 -13.18635 11.16936 1.76196 45.55748 -96.84109 8.5379 -2.02688 44.72365 -0.8526 -8.42556 -19.64837 -6.00229 -2.16054 -3.25069 48.23466 5.61882 4.95486 -24.41037 -6.42611 1.48337 2.94674
0.00248 -9e-05 0.00287 31.98002 -31.22493 -5.27785 49.41341 2.01023 -4.53683 6.38154 -1.6636 -0.63192 -13.68061 -10.34314 -9.42126 33.88296 105.8471 8.43336 4.33549 -15.49022 11.15452 2.6132 45.38272 -97.3626 8.84052 -2.07391 44.62309 -0.82619 -8.43935 -19.66217 -6.00102 -2.15484 -3.25236 48.13378 5.65514 5.00816 -24.40757 -6.42869 1.48044 2.94617
0.00267 -0.0001 0.00304 32.03355 -31.14046 -5.28541 49.39016 2.04571 -4.47241 5.94743 -1.60113 -0.73062 -15.17396 -9.74247 -11.71992 32.97741 111.68101 9.92329 5.38685 -17.81249 11.11238 3.58809 45.20771 -97.85982 9.11799 -2.1235 44.51653 -0.80879 -8.50289 -19.67778 -5.99849 -2.14241 -3.25173 48.02613 5.69441 5.07269 -24.40592 -6.43034 1.47831 2.94597
0.00282 -0.00011 0.00324 32.10142 -31.06227 -5.29376 49.36079 2.08438 -4.43485 5.53044 -1.55674 -0.81817 -16.62101 -9.16459 -14.04899 32.18721 116.99003 11.26843 6.33253 -20.12985 11.11264 4.35038 45.02747 -98.44597 9.46439 -2.17284 44.42204 -0.7665 -8.42947 -19.68962 -5.99891 -2.14724 -3.25796 47.93303 5.72581 5.10536 -24.40183 -6.43398 1.47485 2.94528
0.00287 -8e-05 0.00354 32.19952 -31.00324 -5.3025 49.31993 2.13067 -4.47075 5.15959 -1.56133 -0.86891 -17.94878 -8.63678 -16.48784 31.72952 120.71059 12.16292 6.96565 -22.44446 11.30591 4.33329 44.83602 -99.04053 9.91215 -2.18486 44.36248 -0.65653 -7.97766 -19.69113 -6.00742 -2.19935 -3.28235 47.87975 5.73494 5.04898 -24.39172 -6.44262 1.46832 2.9434
0.00286 -5e-05 0.00387 32.31229 -30.9503 -5.31198 49.27227 2.18031 -4.52968 4.80803 -1.58425 -0.9078 -19.22467 -8.14164 -18.92446 31.3913 123.82031 12.89246 7.47802 -24.73779 11.5351 4.12035 44.6411 -99.75237 10.43928 -2.20115 44.31493 -0.52359 -7.401 -19.68875 -6.01882 -2.2677 -3.31307 47.84129 5.73679 4.96339 -24.37909 -6.45337 1.46024 2.94087
0.00287 -3e-05 0.00419 32.42041 -30.89367 -5.32134 49.22613 2.22896 -4.57224 4.45021 -1.59938 -0.95254 -20.5175 -7.65303 -21.28441 31.00013 127.07322 13.67043 8.02107 -27.00796 11.69679 4.11552 44.44953 -100.57107 10.98819 -2.241 44.26092 -0.40522 -6.90737 -19.68813 -6.02867 -2.32633 -3.33986 47.79569 5.74387 4.89926 -24.36701 -6.46344 1.45213 2.93823
0.00291 -0 0.00449 32.51947 -30.84094 -5.32976 49.18781 2.2753 -4.64373 4.07891 -1.61234 -0.99606 -21.84687 -7.06921 -23.97907 30.59951 130.92841 14.56942 8.67226 -29.42607 12.05325 3.64689 44.24848 -100.76347 11.31032 -2.18105 44.21077 -0.26868 -6.29703 -19.68781 -6.03946 -2.3952 -3.3713 47.75084 5.7431 4.80179 -24.35709 -6.47224 1.44702 2.93725
0.00286 2e-05 0.00485 32.64227 -30.78146 -5.34049 49.12979 2.32735 -4.65675 3.7434 -1.63405 -1.03907 -23.07784 -6.69506 -25.97888 30.24953 133.38316 15.1772 9.06922 -31.52445 12.03831 4.05235 44.06807 -102.22751 12.10277 -2.32031 44.15587 -0.16455 -5.90238 -19.68563 -6.04909 -2.44662 -3.39457 47.70922 5.75637 4.76405 -24.34251 -6.48431 1.43546 2.93276
0.00262 3e-05 0.00531 32.81349 -30.70302 -5.35524 49.03522 2.39325 -4.52896 3.47781 -1.67653 -1.08306 -24.12998 -6.87545 -25.9842 29.99621 131.95223 14.97388 8.76669 -32.77721 10.77157 7.30246 43.93226 -107.70041 14.3528 -3.09326 44.08192 -0.15905 -6.13414 -19.68245 -6.05366 -2.4438 -3.39263 47.66272 5.81614 4.9282 -24.31253 -6.50413 1.40476 2.91778
0.00227 3e-05 0.00584 33.01119 -30.61754 -5.3727 48.9179 2.46487 -4.33635 3.25268 -1.72699 -1.12692 -25.0682 -7.27219 -25.29674 29.79254 129.14877 14.48747 8.21494 -33.69925 9.17038 11.37165 43.81893 -114.3591 17.04203 -4.05228 44.00384 -0.18669 -6.58854 -19.67744 -6.05721 -2.42318 -3.3824 47.6215 5.88925 5.14905 -24.27902 -6.52743 1.36779 2.8994
0.00193 4e-05 0.00637 33.20464 -30.53431 -5.39022 48.80066 2.53471 -4.15605 3.02431 -1.77304 -1.17107 -26.0079 -7.57734 -24.9822 29.57589 127.08779 14.16325 7.79556 -34.75445 7.86531 14.80801 43.7054 -120.11864 19.41048 -4.86859 43.92893 -0.19672 -6.94101 -19.67051 -6.06188 -2.41194 -3.3766 47.58372 5.95229 5.32338 -24.24859 -6.54954 1.33501 2.88332
0.00174 5e-05 0.00678 33.3629 -30.45458 -5.40207 48.72726 2.60165 -4.04921 2.73056 -1.82293 -1.21386 -27.16467 -7.84297 -24.44708 29.3236 124.54046 13.70293 7.29711 -35.89307 5.95382 19.31823 43.55362 -127.36786 22.28482 -5.92413 43.84685 -0.21577 -7.29013 -19.67292 -6.06365 -2.39573 -3.3682 47.51918 6.03177 5.58042 -24.20988 -6.56964 1.29714 2.86435
0.00122 4e-05 0.00746 33.60413 -30.36669 -5.42665 48.55628 2.6754 -3.77334 2.58499 -1.86663 -1.25959 -27.83472 -8.25715 -24.17619 29.15492 122.64368 13.44713 6.8986 -36.76499 5.2245 21.81337 43.48169 -131.83877 24.2194 -6.53356 43.78126 -0.22537 -7.70333 -19.65817 -6.07145 -2.38555 -3.36323 47.51473 6.08055 5.68389 -24.19007 -6.59527 1.26761 2.85022
-0.00017 -1e-05 0.00883 34.0373 -30.24998 -5.48342 48.12936 2.77132 -3.04986 2.81584 -1.89007 -1.31356 -27.25436 -8.89619 -25.06962 29.20973 123.26922 13.94672 6.89971 -37.10262 7.85106 18.33125 43.66722 -127.95363 23.35621 -5.79446 43.73863 -0.19054 -8.21632 -19.57406 -6.09388 -2.39536 -3.36911 47.64555 6.03852 5.30802 -24.203 -6.63033 1.27003 2.85365
-0.00191 -9e-05 0.01048 34.55872 -30.12639 -5.55343 47.60346 2.87306 -2.15836 3.1984 -1.9072 -1.37049 -26.17324 -9.70033 -26.20566 29.34392 124.53411 14.64185 6.99996 -37.15815 11.67665 12.83293 43.92302 -121.29705 21.54763 -4.61193 43.71681 -0.14692 -8.78994 -19.47729 -6.12279 -2.41205 -3.37884 47.8413 5.96542 4.78363 -24.23944 -6.67152 1.28 2.86157
